<svg width="1080" height="1080" viewBox="0 0 1080 1080" fill="none" xmlns="http://www.w3.org/2000/svg">
<rect width="1080" height="1080" fill="white"/>
<path d="M238.01 742.57C238.01 737.81 239.083 733.54 241.23 729.76C243.377 725.933 246.293 722.947 249.98 720.8C253.713 718.653 257.843 717.58 262.37 717.58C267.69 717.58 272.333 718.863 276.3 721.43C280.267 723.997 283.16 727.637 284.98 732.35H277.35C275.997 729.41 274.037 727.147 271.47 725.56C268.95 723.973 265.917 723.18 262.37 723.18C258.963 723.18 255.907 723.973 253.2 725.56C250.493 727.147 248.37 729.41 246.83 732.35C245.29 735.243 244.52 738.65 244.52 742.57C244.52 746.443 245.29 749.85 246.83 752.79C248.37 755.683 250.493 757.923 253.2 759.51C255.907 761.097 258.963 761.89 262.37 761.89C265.917 761.89 268.95 761.12 271.47 759.58C274.037 757.993 275.997 755.73 277.35 752.79H284.98C283.16 757.457 280.267 761.073 276.3 763.64C272.333 766.16 267.69 767.42 262.37 767.42C257.843 767.42 253.713 766.37 249.98 764.27C246.293 762.123 243.377 759.16 241.23 755.38C239.083 751.6 238.01 747.33 238.01 742.57ZM320.152 767L308.532 747.05H300.832V767H294.462V718.21H310.212C313.899 718.21 317.002 718.84 319.522 720.1C322.089 721.36 324.002 723.063 325.262 725.21C326.522 727.357 327.152 729.807 327.152 732.56C327.152 735.92 326.172 738.883 324.212 741.45C322.299 744.017 319.406 745.72 315.532 746.56L327.782 767H320.152ZM300.832 741.94H310.212C313.666 741.94 316.256 741.1 317.982 739.42C319.709 737.693 320.572 735.407 320.572 732.56C320.572 729.667 319.709 727.427 317.982 725.84C316.302 724.253 313.712 723.46 310.212 723.46H300.832V741.94ZM343.42 723.39V739.7H361.2V744.95H343.42V761.75H363.3V767H337.05V718.14H363.3V723.39H343.42ZM401.779 756.15H380.499L376.579 767H369.859L387.499 718.49H394.849L412.419 767H405.699L401.779 756.15ZM399.959 750.97L391.139 726.33L382.319 750.97H399.959ZM450.137 718.21V723.39H436.837V767H430.467V723.39H417.097V718.21H450.137ZM464.348 718.21V767H457.978V718.21H464.348ZM515.524 718.21L497.114 767H489.764L471.354 718.21H478.144L493.474 760.28L508.804 718.21H515.524ZM528.879 723.39V739.7H546.659V744.95H528.879V761.75H548.759V767H522.509V718.14H548.759V723.39H528.879ZM601.49 741.87C603.263 742.15 604.873 742.873 606.32 744.04C607.813 745.207 608.98 746.653 609.82 748.38C610.707 750.107 611.15 751.95 611.15 753.91C611.15 756.383 610.52 758.623 609.26 760.63C608 762.59 606.157 764.153 603.73 765.32C601.35 766.44 598.527 767 595.26 767H577.06V718.21H594.56C597.873 718.21 600.697 718.77 603.03 719.89C605.363 720.963 607.113 722.433 608.28 724.3C609.447 726.167 610.03 728.267 610.03 730.6C610.03 733.493 609.237 735.897 607.65 737.81C606.11 739.677 604.057 741.03 601.49 741.87ZM583.43 739.28H594.14C597.127 739.28 599.437 738.58 601.07 737.18C602.703 735.78 603.52 733.843 603.52 731.37C603.52 728.897 602.703 726.96 601.07 725.56C599.437 724.16 597.08 723.46 594 723.46H583.43V739.28ZM594.7 761.75C597.873 761.75 600.347 761.003 602.12 759.51C603.893 758.017 604.78 755.94 604.78 753.28C604.78 750.573 603.847 748.45 601.98 746.91C600.113 745.323 597.617 744.53 594.49 744.53H583.43V761.75H594.7ZM626.36 718.21V767H619.99V718.21H626.36ZM667.246 718.21V723.39H653.946V767H647.576V723.39H634.206V718.21H667.246ZM690.557 767.49C687.337 767.49 684.444 766.93 681.877 765.81C679.357 764.643 677.374 763.057 675.927 761.05C674.481 758.997 673.734 756.64 673.687 753.98H680.477C680.711 756.267 681.644 758.203 683.277 759.79C684.957 761.33 687.384 762.1 690.557 762.1C693.591 762.1 695.971 761.353 697.697 759.86C699.471 758.32 700.357 756.36 700.357 753.98C700.357 752.113 699.844 750.597 698.817 749.43C697.791 748.263 696.507 747.377 694.967 746.77C693.427 746.163 691.351 745.51 688.737 744.81C685.517 743.97 682.927 743.13 680.967 742.29C679.054 741.45 677.397 740.143 675.997 738.37C674.644 736.55 673.967 734.123 673.967 731.09C673.967 728.43 674.644 726.073 675.997 724.02C677.351 721.967 679.241 720.38 681.667 719.26C684.141 718.14 686.964 717.58 690.137 717.58C694.711 717.58 698.444 718.723 701.337 721.01C704.277 723.297 705.934 726.33 706.307 730.11H699.307C699.074 728.243 698.094 726.61 696.367 725.21C694.641 723.763 692.354 723.04 689.507 723.04C686.847 723.04 684.677 723.74 682.997 725.14C681.317 726.493 680.477 728.407 680.477 730.88C680.477 732.653 680.967 734.1 681.947 735.22C682.974 736.34 684.211 737.203 685.657 737.81C687.151 738.37 689.227 739.023 691.887 739.77C695.107 740.657 697.697 741.543 699.657 742.43C701.617 743.27 703.297 744.6 704.697 746.42C706.097 748.193 706.797 750.62 706.797 753.7C706.797 756.08 706.167 758.32 704.907 760.42C703.647 762.52 701.781 764.223 699.307 765.53C696.834 766.837 693.917 767.49 690.557 767.49ZM741.203 761.82H758.283V767H734.833V718.21H741.203V761.82ZM771.418 761.82H788.498V767H765.048V718.21H771.418V761.82ZM792.883 742.57C792.883 737.81 793.956 733.54 796.103 729.76C798.25 725.933 801.166 722.947 804.853 720.8C808.586 718.653 812.716 717.58 817.243 717.58C822.563 717.58 827.206 718.863 831.173 721.43C835.14 723.997 838.033 727.637 839.853 732.35H832.223C830.87 729.41 828.91 727.147 826.343 725.56C823.823 723.973 820.79 723.18 817.243 723.18C813.836 723.18 810.78 723.973 808.073 725.56C805.366 727.147 803.243 729.41 801.703 732.35C800.163 735.243 799.393 738.65 799.393 742.57C799.393 746.443 800.163 749.85 801.703 752.79C803.243 755.683 805.366 757.923 808.073 759.51C810.78 761.097 813.836 761.89 817.243 761.89C820.79 761.89 823.823 761.12 826.343 759.58C828.91 757.993 830.87 755.73 832.223 752.79H839.853C838.033 757.457 835.14 761.073 831.173 763.64C827.206 766.16 822.563 767.42 817.243 767.42C812.716 767.42 808.586 766.37 804.853 764.27C801.166 762.123 798.25 759.16 796.103 755.38C793.956 751.6 792.883 747.33 792.883 742.57Z" fill="#FB8500"/>
<path d="M645.643 643H294V170H645.643V225.196" stroke="#03045E" stroke-width="60" stroke-linecap="square" stroke-linejoin="round"/>
<path d="M577.654 643H786.008V484.724M786.008 484.724V326.448H577.654M786.008 484.724H643.465" stroke="#FB8500" stroke-width="60" stroke-linecap="square" stroke-linejoin="round"/>
</svg>
